<?xml version="1.0" encoding="UTF-8"?>
<!DOCTYPE svg PUBLIC "-//W3C//DTD SVG 1.1//EN" "http://www.w3.org/Graphics/SVG/1.1/DTD/svg11.dtd">
<svg xmlns="http://www.w3.org/2000/svg" version="1.1" width="287px" height="201px" style="shape-rendering:geometricPrecision; text-rendering:geometricPrecision; image-rendering:optimizeQuality; fill-rule:evenodd; clip-rule:evenodd" xmlns:xlink="http://www.w3.org/1999/xlink">
<g><path style="opacity:1" fill="#fdfced" d="M -0.5,-0.5 C 95.1667,-0.5 190.833,-0.5 286.5,-0.5C 286.5,66.5 286.5,133.5 286.5,200.5C 190.833,200.5 95.1667,200.5 -0.5,200.5C -0.5,133.5 -0.5,66.5 -0.5,-0.5 Z"/></g>
<g><path style="opacity:1" fill="#e9ebe2" d="M 171.5,7.5 C 174.676,6.64066 177.843,6.30733 181,6.5C 189.309,9.23514 197.475,12.4018 205.5,16C 206.126,16.7504 206.626,17.5838 207,18.5C 209.429,15.8566 211.262,16.3566 212.5,20C 210.889,23.0778 211.889,24.7444 215.5,25C 214.944,25.3826 214.611,25.8826 214.5,26.5C 202.261,15.5495 187.927,9.21615 171.5,7.5 Z"/></g>
<g><path style="opacity:1" fill="#fbfaec" d="M 213.5,59.5 C 214.396,69.4679 214.729,79.4679 214.5,89.5C 219.5,89.5 224.5,89.5 229.5,89.5C 250.937,92.8055 259.104,105.139 254,126.5C 250.5,132.667 245.667,137.5 239.5,141C 229.883,142.193 220.216,142.859 210.5,143C 209.373,148.341 207.707,153.507 205.5,158.5C 204.662,158.842 204.328,159.508 204.5,160.5C 204.19,161.738 203.69,161.738 203,160.5C 202.866,155.351 200.699,154.184 196.5,157C 197.743,158.154 198.743,159.488 199.5,161C 197.697,161.637 196.364,162.803 195.5,164.5C 194.532,163.511 193.365,162.844 192,162.5C 189.208,163.216 186.374,163.549 183.5,163.5C 192.925,160.571 198.759,154.238 201,144.5C 201.667,126.5 201.667,108.5 201,90.5C 198.923,85.8788 195.423,84.0454 190.5,85C 167.252,94.4164 144.252,104.416 121.5,115C 116.607,122.046 113.607,129.879 112.5,138.5C 110.723,141.505 109.723,144.838 109.5,148.5C 107.723,151.505 106.723,154.838 106.5,158.5C 105.13,161.619 104.13,164.952 103.5,168.5C 102.833,154.833 102.167,141.167 101.5,127.5C 101.5,126.833 101.167,126.5 100.5,126.5C 100.334,121.489 100.501,116.489 101,111.5C 125.753,100.301 150.92,89.9673 176.5,80.5C 177.583,79.635 177.749,78.635 177,77.5C 175.08,74.6612 173.413,71.6612 172,68.5C 168.085,64.4502 163.585,63.6168 158.5,66C 152.085,68.4716 145.752,71.1383 139.5,74C 137.218,78.5752 134.218,82.5752 130.5,86C 124.701,89.7573 119.701,89.0906 115.5,84C 106.748,85.5292 98.4144,88.5292 90.5,93C 87.8002,94.8567 86.1335,97.3567 85.5,100.5C 84.1232,107.231 84.4566,113.898 86.5,120.5C 86.972,131.22 87.972,141.887 89.5,152.5C 87.0336,150.907 84.8669,148.907 83,146.5C 83.6752,148.272 83.5086,150.105 82.5,152C 85.4156,157.084 84.0823,160.584 78.5,162.5C 68.8805,161.692 59.2138,161.192 49.5,161C 48.944,160.617 48.6107,160.117 48.5,159.5C 59.4617,160.432 70.4617,160.765 81.5,160.5C 80.0765,154.565 79.0765,148.565 78.5,142.5C 70.4931,142.666 62.4931,142.5 54.5,142C 47.954,139.982 42.7873,136.148 39,130.5C 37.1319,127.395 35.9652,124.062 35.5,120.5C 35.4372,115.797 35.7705,111.13 36.5,106.5C 40.4454,96.5194 47.7787,90.8527 58.5,89.5C 64.5,89.5 70.5,89.5 76.5,89.5C 76.5,84.1667 76.5,78.8333 76.5,73.5C 78.5451,60.2873 85.8784,51.454 98.5,47C 108.607,45.0449 117.94,46.8782 126.5,52.5C 136.75,32.7044 153.083,23.871 175.5,26C 194.995,29.6745 207.662,40.8412 213.5,59.5 Z"/></g>
<g><path style="opacity:1" fill="#182227" d="M 100.5,126.5 C 100.333,142.503 100.5,158.503 101,174.5C 101.717,173.956 102.217,173.289 102.5,172.5C 102.433,171.041 102.766,169.708 103.5,168.5C 104.13,164.952 105.13,161.619 106.5,158.5C 108.277,155.495 109.277,152.162 109.5,148.5C 111.277,145.495 112.277,142.162 112.5,138.5C 113.607,129.879 116.607,122.046 121.5,115C 144.252,104.416 167.252,94.4164 190.5,85C 195.423,84.0454 198.923,85.8788 201,90.5C 201.667,108.5 201.667,126.5 201,144.5C 198.759,154.238 192.925,160.571 183.5,163.5C 160.213,173.473 136.88,183.473 113.5,193.5C 103.498,189.664 96.6648,182.664 93,172.5C 92.2803,165.737 91.1136,159.07 89.5,152.5C 87.972,141.887 86.972,131.22 86.5,120.5C 86.2871,113.826 85.9538,107.159 85.5,100.5C 86.1335,97.3567 87.8002,94.8567 90.5,93C 98.4144,88.5292 106.748,85.5292 115.5,84C 119.701,89.0906 124.701,89.7573 130.5,86C 134.218,82.5752 137.218,78.5752 139.5,74C 145.752,71.1383 152.085,68.4716 158.5,66C 163.585,63.6168 168.085,64.4502 172,68.5C 173.413,71.6612 175.08,74.6612 177,77.5C 177.749,78.635 177.583,79.635 176.5,80.5C 150.92,89.9673 125.753,100.301 101,111.5C 100.501,116.489 100.334,121.489 100.5,126.5 Z"/></g>
<g><path style="opacity:1" fill="#cfd2ca" d="M 274.5,123.5 C 275.288,112.886 273.288,102.886 268.5,93.5C 269.822,93.67 270.989,93.3366 272,92.5C 272.707,94.0806 273.54,95.5806 274.5,97C 275.461,105.834 275.461,114.667 274.5,123.5 Z"/></g>
<g><path style="opacity:1" fill="#192327" d="M 171.5,7.5 C 187.927,9.21615 202.261,15.5495 214.5,26.5C 226.096,39.1786 232.096,54.1786 232.5,71.5C 248.354,72.7503 260.354,80.0836 268.5,93.5C 273.288,102.886 275.288,112.886 274.5,123.5C 269.434,142.898 257.101,154.898 237.5,159.5C 226.654,159.828 215.987,159.494 205.5,158.5C 207.707,153.507 209.373,148.341 210.5,143C 220.216,142.859 229.883,142.193 239.5,141C 245.667,137.5 250.5,132.667 254,126.5C 259.104,105.139 250.937,92.8055 229.5,89.5C 225.03,88.5139 220.363,88.1805 215.5,88.5C 215.666,79.8269 215.5,71.1603 215,62.5C 214.768,61.2625 214.268,60.2625 213.5,59.5C 207.662,40.8412 194.995,29.6745 175.5,26C 153.083,23.871 136.75,32.7044 126.5,52.5C 117.94,46.8782 108.607,45.0449 98.5,47C 85.8784,51.454 78.5451,60.2873 76.5,73.5C 75.5128,78.3054 75.1795,83.3054 75.5,88.5C 69.642,88.1778 63.9753,88.5111 58.5,89.5C 47.7787,90.8527 40.4454,96.5194 36.5,106.5C 35.027,109.017 34.3603,111.85 34.5,115C 34.5056,117.033 34.8389,118.866 35.5,120.5C 35.9652,124.062 37.1319,127.395 39,130.5C 42.7873,136.148 47.954,139.982 54.5,142C 62.4931,142.5 70.4931,142.666 78.5,142.5C 79.0765,148.565 80.0765,154.565 81.5,160.5C 70.4617,160.765 59.4617,160.432 48.5,159.5C 24.5387,150 14.0387,132.334 17,106.5C 23.0654,85.0444 37.2321,73.3778 59.5,71.5C 62.1729,49.0209 74.5063,34.8542 96.5,29C 103.693,28.2559 110.859,28.4226 118,29.5C 122.069,27.437 125.569,24.6037 128.5,21C 141.273,11.5758 155.607,7.07578 171.5,7.5 Z"/></g>
<g><path style="opacity:1" fill="#4d5353" d="M 76.5,73.5 C 76.5,78.8333 76.5,84.1667 76.5,89.5C 70.5,89.5 64.5,89.5 58.5,89.5C 63.9753,88.5111 69.642,88.1778 75.5,88.5C 75.1795,83.3054 75.5128,78.3054 76.5,73.5 Z"/></g>
<g><path style="opacity:1" fill="#585e5d" d="M 213.5,59.5 C 214.268,60.2625 214.768,61.2625 215,62.5C 215.5,71.1603 215.666,79.8269 215.5,88.5C 220.363,88.1805 225.03,88.5139 229.5,89.5C 224.5,89.5 219.5,89.5 214.5,89.5C 214.729,79.4679 214.396,69.4679 213.5,59.5 Z"/></g>
<g><path style="opacity:1" fill="#585d58" d="M 85.5,100.5 C 85.9538,107.159 86.2871,113.826 86.5,120.5C 84.4566,113.898 84.1232,107.231 85.5,100.5 Z"/></g>
<g><path style="opacity:1" fill="#8b8f8a" d="M 36.5,106.5 C 35.7705,111.13 35.4372,115.797 35.5,120.5C 34.8389,118.866 34.5056,117.033 34.5,115C 34.3603,111.85 35.027,109.017 36.5,106.5 Z"/></g>
<g><path style="opacity:1" fill="#c9cdc4" d="M 101.5,127.5 C 102.167,141.167 102.833,154.833 103.5,168.5C 102.766,169.708 102.433,171.041 102.5,172.5C 101.504,157.676 101.171,142.676 101.5,127.5 Z"/></g>
<g><path style="opacity:1" fill="#5e6462" d="M 112.5,138.5 C 112.277,142.162 111.277,145.495 109.5,148.5C 109.723,144.838 110.723,141.505 112.5,138.5 Z"/></g>
<g><path style="opacity:1" fill="#505754" d="M 100.5,126.5 C 101.167,126.5 101.5,126.833 101.5,127.5C 101.171,142.676 101.504,157.676 102.5,172.5C 102.217,173.289 101.717,173.956 101,174.5C 100.5,158.503 100.333,142.503 100.5,126.5 Z"/></g>
<g><path style="opacity:1" fill="#646565" d="M 109.5,148.5 C 109.277,152.162 108.277,155.495 106.5,158.5C 106.723,154.838 107.723,151.505 109.5,148.5 Z"/></g>
<g><path style="opacity:1" fill="#626563" d="M 205.5,158.5 C 215.987,159.494 226.654,159.828 237.5,159.5C 226.679,160.495 215.679,160.828 204.5,160.5C 204.328,159.508 204.662,158.842 205.5,158.5 Z"/></g>
</svg>
